<svg width="24" height="24" fill="none" xmlns="http://www.w3.org/2000/svg"><path d="M21.018 14.836l-.245.708.245-.708zm0-5.672l.245.71-.245-.71zM2.982 14.836l.245.708-.245-.708zm0-5.672l-.245.71.245-.71zm12.548.366a.75.75 0 00-1.06-1.06l1.06 1.06zm-7.06 4.94a.75.75 0 101.06 1.06l-1.06-1.06zM6 20.25A3.25 3.25 0 012.75 17h-1.5A4.75 4.75 0 006 21.75v-1.5zM21.25 17A3.25 3.25 0 0118 20.25v1.5A4.75 4.75 0 0022.75 17h-1.5zM18 3.75A3.25 3.25 0 0121.25 7h1.5A4.75 4.75 0 0018 2.25v1.5zM6 2.25A4.75 4.75 0 001.25 7h1.5A3.25 3.25 0 016 3.75v-1.5zm15.264 11.877A2.251 2.251 0 0119.75 12h-1.5a3.751 3.751 0 002.523 3.544l.49-1.417zM19.75 12a2.25 2.25 0 011.514-2.127l-.491-1.417A3.751 3.751 0 0018.25 12h1.5zm-15.5 0c0 .984-.632 1.822-1.513 2.127l.49 1.417A3.751 3.751 0 005.75 12h-1.5zM2.737 9.873A2.251 2.251 0 014.25 12h1.5a3.751 3.751 0 00-2.523-3.544l-.49 1.417zM22.75 8V7h-1.5v1h1.5zm-1.5 8v1h1.5v-1h-1.5zm-20 0v1h1.5v-1h-1.5zm1.5-8V7h-1.5v1h1.5zM18 20.25H6v1.5h12v-1.5zm0-18H6v1.5h12v-1.5zM2.737 14.127c-.68.235-1.487.87-1.487 1.873h1.5c0-.056.02-.13.102-.219a.92.92 0 01.375-.237l-.49-1.417zm18.527-4.254c.678-.235 1.486-.87 1.486-1.873h-1.5c0 .056-.02.13-.102.219a.921.921 0 01-.375.237l.49 1.417zM3.227 8.456a.921.921 0 01-.375-.237C2.77 8.129 2.75 8.056 2.75 8h-1.5c0 1.002.808 1.638 1.487 1.873l.49-1.417zm17.546 7.088a.92.92 0 01.375.237c.081.09.102.163.102.219h1.5c0-1.002-.808-1.638-1.486-1.873l-.491 1.417zM9.25 9a.25.25 0 01-.25.25v1.5A1.75 1.75 0 0010.75 9h-1.5zM9 9.25A.25.25 0 018.75 9h-1.5c0 .966.784 1.75 1.75 1.75v-1.5zM8.75 9A.25.25 0 019 8.75v-1.5A1.75 1.75 0 007.25 9h1.5zM9 8.75a.25.25 0 01.25.25h1.5A1.75 1.75 0 009 7.25v1.5zM15.25 15a.25.25 0 01-.25.25v1.5A1.75 1.75 0 0016.75 15h-1.5zm-.25.25a.25.25 0 01-.25-.25h-1.5c0 .966.784 1.75 1.75 1.75v-1.5zm-.25-.25a.25.25 0 01.25-.25v-1.5A1.75 1.75 0 0013.25 15h1.5zm.25-.25a.25.25 0 01.25.25h1.5A1.75 1.75 0 0015 13.25v1.5zm-.53-6.28l-6 6 1.06 1.06 6-6-1.06-1.06z" fill="#FEFEFE"/></svg>